<?xml version="1.0" encoding="UTF-8"?>
<svg xmlns="http://www.w3.org/2000/svg" id="Layer_1" data-name="Layer 1" viewBox="0 0 24 24">
  <path d="m20.91,7.713C20.358,3.736,17.057.519,13.06.061c-2.505-.288-4.939.441-6.851,2.05-1.887,1.588-3.051,3.906-3.193,6.36-.016.276.194.513.47.528.276.022.512-.194.528-.47.126-2.182,1.161-4.242,2.839-5.654,1.699-1.429,3.863-2.078,6.093-1.82,3.55.406,6.483,3.264,6.974,6.795.192,1.387.031,2.792-.467,4.063-.488,1.248-1.776,2.087-3.205,2.087h-2.517c.171-.294.269-.636.269-1,0-1.103-.897-2-2-2s-2,.897-2,2,.897,2,2,2h4.248c1.836,0,3.499-1.094,4.137-2.722.56-1.432.741-3.01.525-4.565Zm-9.91,5.287c0-.552.449-1,1-1s1,.448,1,1-.449,1-1,1-1-.448-1-1Zm5.455-1.728c.361-.707.545-1.471.545-2.272,0-2.757-2.243-5-5-5s-5,2.243-5,5c0,1.159.406,2.289,1.143,3.182.176.213.146.528-.067.704-.093.077-.206.114-.318.114-.144,0-.287-.062-.386-.182-.884-1.071-1.372-2.427-1.372-3.818,0-3.309,2.691-6,6-6s6,2.691,6,6c0,.961-.22,1.879-.654,2.728-.127.246-.431.342-.673.218-.246-.126-.344-.428-.218-.673Zm-4.455,5.728c-3.858,0-7.219,2.69-7.99,6.398-.056.271.134.602.49.602.232,0,.44-.162.489-.398.35-1.686,1.314-3.131,2.634-4.131l1.304,1.955c.479.719,1.666.719,2.146,0l.894-1.441.96,1.441c.239.359.641.574,1.073.574s.834-.215,1.073-.574l1.303-1.955c1.32,1,2.284,2.445,2.635,4.131.056.271.326.448.591.388.271-.056.444-.32.388-.591-.771-3.708-4.131-6.398-7.989-6.398Zm2.241,3.871c-.077.116-.194.129-.241.129s-.164-.013-.241-.129l-.961-1.442c-.356-.533-1.239-.534-1.596,0l-.961,1.441c-.078.116-.194.129-.241.129s-.163-.013-.241-.129l-1.299-1.948c1.053-.589,2.265-.923,3.54-.923s2.487.334,3.539.923l-1.298,1.948Z"/>
</svg>
